<svg xmlns="http://www.w3.org/2000/svg" xmlns:xlink="http://www.w3.org/1999/xlink" width="405" zoomAndPan="magnify" viewBox="0 0 303.75 366.749994" height="489" preserveAspectRatio="xMidYMid meet" version="1.0"><defs><g/><clipPath id="efeda7b2cf"><path d="M 0 0.0273438 L 303.5 0.0273438 L 303.5 366.472656 L 0 366.472656 Z M 0 0.0273438 " clip-rule="nonzero"/></clipPath><clipPath id="a82e9aee19"><path d="M 5.621094 56.433594 L 263.371094 56.433594 L 263.371094 314.183594 L 5.621094 314.183594 Z M 5.621094 56.433594 " clip-rule="nonzero"/></clipPath><clipPath id="01da0e05a8"><path d="M 134.496094 56.433594 C 63.320312 56.433594 5.621094 114.132812 5.621094 185.308594 C 5.621094 256.484375 63.320312 314.183594 134.496094 314.183594 C 205.671875 314.183594 263.371094 256.484375 263.371094 185.308594 C 263.371094 114.132812 205.671875 56.433594 134.496094 56.433594 Z M 134.496094 56.433594 " clip-rule="nonzero"/></clipPath><clipPath id="4ee662eda7"><path d="M 0.621094 0.433594 L 258.371094 0.433594 L 258.371094 258.183594 L 0.621094 258.183594 Z M 0.621094 0.433594 " clip-rule="nonzero"/></clipPath><clipPath id="e280762e77"><path d="M 129.496094 0.433594 C 58.320312 0.433594 0.621094 58.132812 0.621094 129.308594 C 0.621094 200.484375 58.320312 258.183594 129.496094 258.183594 C 200.671875 258.183594 258.371094 200.484375 258.371094 129.308594 C 258.371094 58.132812 200.671875 0.433594 129.496094 0.433594 Z M 129.496094 0.433594 " clip-rule="nonzero"/></clipPath><clipPath id="96f85570ab"><rect x="0" width="259" y="0" height="259"/></clipPath><clipPath id="e0487fcf57"><rect x="0" width="119" y="0" height="196"/></clipPath><clipPath id="f82335e208"><rect x="0" width="118" y="0" height="199"/></clipPath></defs><g clip-path="url(#efeda7b2cf)"><path fill="#ffffff" d="M 0 0.0273438 L 303.5 0.0273438 L 303.5 366.472656 L 0 366.472656 Z M 0 0.0273438 " fill-opacity="1" fill-rule="nonzero"/></g><g clip-path="url(#a82e9aee19)"><g clip-path="url(#01da0e05a8)"><g transform="matrix(1, 0, 0, 1, 5, 56)"><g clip-path="url(#96f85570ab)"><g clip-path="url(#4ee662eda7)"><g clip-path="url(#e280762e77)"><path fill="#b1d02e" d="M 0.621094 0.433594 L 258.371094 0.433594 L 258.371094 258.183594 L 0.621094 258.183594 Z M 0.621094 0.433594 " fill-opacity="1" fill-rule="nonzero"/></g></g></g></g></g></g><g transform="matrix(1, 0, 0, 1, 46, 57)"><g clip-path="url(#e0487fcf57)"><g fill="#000000" fill-opacity="1"><g transform="translate(8.693742, 146.715864)"><g><path d="M 45.917969 -96.722656 L 44.945312 -78.835938 L 35.96875 -79.324219 L 28.902344 -84.886719 C 34.558594 -92.070312 41.253906 -97.519531 48.992188 -101.234375 C 56.597656 -104.804688 63.792969 -106.589844 70.574219 -106.589844 C 78.222656 -106.589844 84.675781 -104.523438 89.933594 -100.390625 C 94.484375 -96.683594 98.152344 -92.136719 100.925781 -86.746094 L 101 -86.601562 L 101.070312 -86.457031 C 103.480469 -81.335938 105.207031 -75.859375 106.253906 -70.023438 L 106.292969 -69.804688 C 107.140625 -64.296875 107.5625 -59.109375 107.5625 -54.242188 C 107.5625 -46.496094 107.152344 -39.207031 106.332031 -32.367188 C 105.257812 -24.671875 103.089844 -17.878906 99.832031 -11.980469 C 96.304688 -5.601562 91.359375 -0.570312 84.996094 3.117188 C 78.511719 6.773438 70.335938 8.601562 60.464844 8.601562 C 52.46875 8.601562 43.445312 7.347656 33.398438 4.835938 L 35.578125 -3.886719 L 44.5625 -4.3125 L 46.953125 46.125 L -6.425781 46.125 L -7.085938 -102.566406 L 46.480469 -107.027344 Z M 27.960938 -97.699219 L 36.941406 -97.210938 L 37.6875 -88.25 L 2.691406 -85.332031 L 1.945312 -94.292969 L 10.9375 -94.332031 L 11.519531 37.09375 L 2.527344 37.132812 L 2.527344 28.140625 L 37.523438 28.140625 L 37.523438 37.132812 L 28.542969 37.558594 L 26.023438 -15.546875 L 37.761719 -12.613281 C 46.375 -10.457031 53.945312 -9.382812 60.464844 -9.382812 C 67.1875 -9.382812 72.359375 -10.402344 75.984375 -12.449219 C 79.472656 -14.464844 82.171875 -17.210938 84.089844 -20.679688 C 86.277344 -24.636719 87.738281 -29.246094 88.476562 -34.511719 C 89.210938 -40.636719 89.578125 -47.214844 89.578125 -54.242188 C 89.578125 -58.191406 89.226562 -62.464844 88.515625 -67.070312 L 97.40625 -68.4375 L 88.554688 -66.847656 C 87.785156 -71.125 86.535156 -75.109375 84.796875 -78.800781 L 92.933594 -82.628906 L 84.9375 -78.511719 C 83.308594 -81.675781 81.269531 -84.257812 78.824219 -86.25 C 76.824219 -87.820312 74.074219 -88.605469 70.574219 -88.605469 C 66.46875 -88.605469 61.867188 -87.410156 56.773438 -85.019531 C 51.546875 -82.511719 46.96875 -78.757812 43.035156 -73.761719 L 25.445312 -51.421875 Z M 49.46875 -60.023438 C 47.207031 -59.550781 45.621094 -59.070312 44.703125 -58.574219 L 44.460938 -58.449219 L 44.464844 -58.480469 C 44.574219 -58.589844 44.65625 -58.707031 44.714844 -58.835938 L 36.550781 -62.601562 L 44.816406 -59.0625 C 44.464844 -58.242188 44.25 -57.011719 44.171875 -55.371094 C 44.050781 -52.792969 43.988281 -49.433594 43.988281 -45.300781 C 43.988281 -41.148438 44.050781 -37.578125 44.175781 -34.59375 C 44.265625 -32.4375 44.53125 -30.773438 44.96875 -29.597656 C 44.996094 -29.53125 45.019531 -29.480469 45.039062 -29.445312 C 45.035156 -29.449219 45.027344 -29.460938 45.015625 -29.476562 C 44.96875 -29.527344 44.933594 -29.5625 44.902344 -29.582031 L 45.027344 -29.511719 L 45.152344 -29.433594 C 45.09375 -29.46875 45.054688 -29.492188 45.039062 -29.496094 C 45.125 -29.464844 45.246094 -29.429688 45.402344 -29.398438 C 45.972656 -29.273438 46.71875 -29.210938 47.632812 -29.210938 C 48.722656 -29.210938 49.628906 -29.285156 50.339844 -29.425781 C 50.683594 -29.496094 50.886719 -29.546875 50.949219 -29.582031 L 55.410156 -21.773438 L 50.695312 -29.433594 C 50.636719 -29.398438 50.589844 -29.351562 50.546875 -29.300781 C 50.578125 -29.34375 50.625 -29.441406 50.683594 -29.597656 C 51.125 -30.773438 51.390625 -32.4375 51.480469 -34.59375 L 60.464844 -34.21875 L 51.472656 -34.21875 L 51.472656 -45.300781 C 51.472656 -49.1875 51.539062 -52.6875 51.675781 -55.800781 L 60.660156 -55.410156 L 51.667969 -55.410156 C 51.667969 -57.832031 51.523438 -59.808594 51.238281 -61.335938 C 51.171875 -61.695312 51.097656 -61.960938 51.019531 -62.140625 C 51.042969 -62.085938 51.109375 -62 51.214844 -61.878906 L 57.9375 -67.851562 L 51.964844 -61.132812 C 52.402344 -60.742188 52.824219 -60.488281 53.230469 -60.371094 C 53.132812 -60.402344 52.886719 -60.414062 52.492188 -60.414062 C 51.703125 -60.414062 50.710938 -60.289062 49.515625 -60.03125 Z M 45.75 -77.617188 C 48.183594 -78.140625 50.433594 -78.398438 52.492188 -78.398438 C 57.234375 -78.398438 61.042969 -77.125 63.910156 -74.574219 L 64.304688 -74.222656 L 64.65625 -73.828125 C 66.800781 -71.417969 68.21875 -68.359375 68.914062 -64.648438 C 69.40625 -62.027344 69.652344 -58.949219 69.652344 -55.410156 L 69.652344 -55.214844 L 69.644531 -55.019531 C 69.519531 -52.167969 69.457031 -48.929688 69.457031 -45.300781 L 69.457031 -34.03125 L 69.449219 -33.84375 C 69.28125 -29.773438 68.636719 -26.253906 67.523438 -23.285156 C 66.023438 -19.285156 63.558594 -16.230469 60.121094 -14.117188 L 59.996094 -14.039062 L 59.871094 -13.96875 C 56.675781 -12.140625 52.59375 -11.226562 47.632812 -11.226562 C 42.824219 -11.226562 38.855469 -12.191406 35.726562 -14.117188 L 40.4375 -21.773438 L 35.976562 -13.96875 C 32.285156 -16.078125 29.667969 -19.183594 28.132812 -23.285156 C 27.015625 -26.253906 26.375 -29.773438 26.207031 -33.84375 C 26.070312 -37.078125 26.003906 -40.898438 26.003906 -45.300781 C 26.003906 -49.71875 26.070312 -53.363281 26.207031 -56.226562 C 26.390625 -60.03125 27.082031 -63.335938 28.285156 -66.144531 L 28.386719 -66.371094 C 30.046875 -69.964844 32.722656 -72.6875 36.417969 -74.535156 L 40.4375 -66.492188 L 36.175781 -74.410156 C 38.628906 -75.730469 41.835938 -76.800781 45.800781 -77.628906 Z M 45.75 -77.617188 "/></g></g></g><g fill="#b1d02e" fill-opacity="1"><g transform="translate(8.693742, 146.715864)"><g><path d="M 36.9375 -97.203125 L 35.96875 -79.328125 C 40.757812 -85.421875 46.394531 -90.019531 52.875 -93.125 C 59.226562 -96.101562 65.128906 -97.59375 70.578125 -97.59375 C 76.148438 -97.59375 80.75 -96.171875 84.375 -93.328125 C 87.875 -90.472656 90.726562 -86.90625 92.9375 -82.625 C 95.007812 -78.21875 96.5 -73.488281 97.40625 -68.4375 C 98.1875 -63.382812 98.578125 -58.65625 98.578125 -54.25 C 98.578125 -46.851562 98.1875 -39.914062 97.40625 -33.4375 C 96.5 -26.957031 94.6875 -21.253906 91.96875 -16.328125 C 89.238281 -11.398438 85.410156 -7.515625 80.484375 -4.671875 C 75.429688 -1.816406 68.757812 -0.390625 60.46875 -0.390625 C 53.207031 -0.390625 44.910156 -1.554688 35.578125 -3.890625 L 37.515625 37.140625 L 2.53125 37.140625 L 1.9375 -94.296875 Z M 47.640625 -68.828125 C 44.523438 -68.179688 42.125 -67.40625 40.4375 -66.5 C 38.625 -65.582031 37.328125 -64.285156 36.546875 -62.609375 C 35.773438 -60.785156 35.320312 -58.515625 35.1875 -55.796875 C 35.0625 -53.078125 35 -49.578125 35 -45.296875 C 35 -41.023438 35.0625 -37.332031 35.1875 -34.21875 C 35.320312 -31.101562 35.773438 -28.507812 36.546875 -26.4375 C 37.328125 -24.363281 38.625 -22.8125 40.4375 -21.78125 C 42.125 -20.738281 44.523438 -20.21875 47.640625 -20.21875 C 51.003906 -20.21875 53.59375 -20.738281 55.40625 -21.78125 C 57.09375 -22.8125 58.328125 -24.363281 59.109375 -26.4375 C 59.878906 -28.507812 60.332031 -31.101562 60.46875 -34.21875 C 60.46875 -37.332031 60.46875 -41.023438 60.46875 -45.296875 C 60.46875 -49.054688 60.53125 -52.425781 60.65625 -55.40625 C 60.65625 -58.382812 60.460938 -60.914062 60.078125 -63 C 59.691406 -65.070312 58.976562 -66.691406 57.9375 -67.859375 C 56.769531 -68.890625 54.957031 -69.40625 52.5 -69.40625 C 51.070312 -69.40625 49.453125 -69.210938 47.640625 -68.828125 Z M 47.640625 -68.828125 "/></g></g></g></g></g><g transform="matrix(1, 0, 0, 1, 137, 108)"><g clip-path="url(#f82335e208)"><g fill="#b1d02e" fill-opacity="1"><g transform="translate(7.720577, 148.462409)"><g><path d="M 45.09375 -98.730469 L 44.105469 -80.492188 L 36.679688 -80.894531 L 30.835938 -85.492188 C 36.441406 -92.609375 43.066406 -98.003906 50.710938 -101.675781 C 58.226562 -105.203125 65.316406 -106.964844 71.972656 -106.964844 C 79.371094 -106.964844 85.59375 -104.984375 90.640625 -101.015625 C 95.082031 -97.398438 98.660156 -92.949219 101.382812 -87.667969 L 101.441406 -87.550781 L 101.5 -87.429688 C 103.894531 -82.34375 105.609375 -76.902344 106.652344 -71.105469 L 106.667969 -71.011719 L 106.679688 -70.921875 C 107.53125 -65.390625 107.957031 -60.191406 107.957031 -55.316406 C 107.957031 -47.488281 107.542969 -40.121094 106.714844 -33.214844 C 105.648438 -25.601562 103.507812 -18.882812 100.289062 -13.058594 C 96.847656 -6.832031 92.019531 -1.921875 85.808594 1.675781 C 79.472656 5.25 71.421875 7.039062 61.660156 7.039062 C 53.648438 7.039062 44.589844 5.773438 34.480469 3.246094 L 36.285156 -3.964844 L 43.710938 -4.316406 L 46.0625 45.304688 L -4.824219 45.304688 L -5.484375 -103 L 45.558594 -107.253906 Z M 30.246094 -99.539062 L 37.671875 -99.132812 L 38.289062 -91.726562 L 2.601562 -88.75 L 1.984375 -96.160156 L 9.417969 -96.195312 L 10.011719 37.835938 L 2.578125 37.871094 L 2.578125 30.433594 L 38.265625 30.433594 L 38.265625 37.871094 L 30.839844 38.222656 L 28.382812 -13.605469 L 38.085938 -11.179688 C 47.011719 -8.949219 54.871094 -7.832031 61.660156 -7.832031 C 68.820312 -7.832031 74.386719 -8.953125 78.359375 -11.191406 C 82.191406 -13.414062 85.164062 -16.429688 87.273438 -20.25 C 89.605469 -24.472656 91.164062 -29.382812 91.949219 -34.988281 C 92.707031 -41.304688 93.085938 -48.078125 93.085938 -55.316406 C 93.085938 -59.433594 92.71875 -63.878906 91.984375 -68.660156 L 99.332031 -69.789062 L 92.015625 -68.476562 C 91.203125 -72.988281 89.882812 -77.195312 88.046875 -81.097656 L 94.773438 -84.265625 L 88.164062 -80.859375 C 86.390625 -84.300781 84.152344 -87.121094 81.457031 -89.324219 C 79.101562 -91.171875 75.941406 -92.097656 71.972656 -92.097656 C 67.527344 -92.097656 62.582031 -90.820312 57.148438 -88.269531 C 51.574219 -85.59375 46.699219 -81.601562 42.523438 -76.292969 L 27.980469 -57.820312 Z M 50.09375 -62.910156 C 47.625 -62.394531 45.847656 -61.84375 44.765625 -61.261719 L 44.664062 -61.207031 L 44.566406 -61.15625 C 44.269531 -61.011719 44.089844 -60.867188 44.027344 -60.726562 L 37.273438 -63.84375 L 44.109375 -60.914062 C 43.667969 -59.886719 43.402344 -58.429688 43.3125 -56.550781 C 43.1875 -53.890625 43.125 -50.441406 43.125 -46.195312 C 43.125 -41.9375 43.1875 -38.273438 43.316406 -35.203125 C 43.414062 -32.824219 43.722656 -30.949219 44.238281 -29.574219 C 44.402344 -29.136719 44.632812 -28.832031 44.929688 -28.660156 L 45.035156 -28.601562 L 45.136719 -28.539062 C 45.660156 -28.214844 46.804688 -28.054688 48.574219 -28.054688 C 50.695312 -28.054688 52.109375 -28.257812 52.816406 -28.660156 L 56.507812 -22.207031 L 52.609375 -28.539062 C 52.882812 -28.707031 53.117188 -29.050781 53.3125 -29.574219 C 53.828125 -30.949219 54.132812 -32.824219 54.234375 -35.203125 L 61.660156 -34.894531 L 54.226562 -34.894531 L 54.226562 -46.195312 C 54.226562 -50.136719 54.292969 -53.683594 54.433594 -56.828125 L 61.859375 -56.507812 L 54.425781 -56.507812 C 54.425781 -59.085938 54.269531 -61.207031 53.957031 -62.867188 C 53.8125 -63.632812 53.671875 -64.09375 53.527344 -64.257812 L 59.085938 -69.195312 L 54.144531 -63.640625 C 54.394531 -63.417969 54.601562 -63.28125 54.761719 -63.238281 C 54.503906 -63.308594 54.09375 -63.347656 53.53125 -63.347656 C 52.605469 -63.347656 51.472656 -63.203125 50.132812 -62.917969 Z M 47.019531 -77.457031 C 49.382812 -77.964844 51.554688 -78.21875 53.53125 -78.21875 C 57.929688 -78.21875 61.425781 -77.0625 64.023438 -74.753906 L 64.351562 -74.460938 L 64.640625 -74.136719 C 66.613281 -71.917969 67.921875 -69.074219 68.574219 -65.609375 C 69.054688 -63.042969 69.296875 -60.007812 69.296875 -56.507812 L 69.296875 -56.34375 L 69.289062 -56.183594 C 69.160156 -53.25 69.097656 -49.921875 69.097656 -46.195312 L 69.097656 -34.742188 L 69.089844 -34.585938 C 68.925781 -30.621094 68.308594 -27.210938 67.234375 -24.355469 C 65.847656 -20.648438 63.570312 -17.820312 60.402344 -15.875 L 60.300781 -15.8125 L 60.195312 -15.75 C 57.203125 -14.039062 53.328125 -13.183594 48.574219 -13.183594 C 44 -13.183594 40.257812 -14.082031 37.34375 -15.875 L 41.238281 -22.207031 L 37.550781 -15.75 C 34.148438 -17.695312 31.734375 -20.5625 30.3125 -24.355469 C 29.242188 -27.210938 28.625 -30.621094 28.457031 -34.585938 C 28.320312 -37.859375 28.253906 -41.730469 28.253906 -46.195312 C 28.253906 -50.675781 28.320312 -54.363281 28.460938 -57.257812 C 28.632812 -60.925781 29.292969 -64.097656 30.441406 -66.769531 L 30.480469 -66.867188 L 30.523438 -66.957031 C 32.046875 -70.253906 34.507812 -72.753906 37.914062 -74.457031 L 41.238281 -67.808594 L 37.714844 -74.355469 C 40.066406 -75.621094 43.183594 -76.660156 47.058594 -77.464844 Z M 47.019531 -77.457031 "/></g></g></g><g fill="#000000" fill-opacity="1"><g transform="translate(7.720577, 148.462409)"><g><path d="M 37.671875 -99.125 L 36.671875 -80.890625 C 41.566406 -87.097656 47.316406 -91.789062 53.921875 -94.96875 C 60.398438 -98.007812 66.414062 -99.53125 71.96875 -99.53125 C 77.65625 -99.53125 82.347656 -98.078125 86.046875 -95.171875 C 89.617188 -92.265625 92.523438 -88.628906 94.765625 -84.265625 C 96.878906 -79.765625 98.398438 -74.941406 99.328125 -69.796875 C 100.117188 -64.640625 100.515625 -59.8125 100.515625 -55.3125 C 100.515625 -47.78125 100.117188 -40.710938 99.328125 -34.109375 C 98.398438 -27.492188 96.550781 -21.675781 93.78125 -16.65625 C 91 -11.632812 87.097656 -7.671875 82.078125 -4.765625 C 76.921875 -1.847656 70.113281 -0.390625 61.65625 -0.390625 C 54.257812 -0.390625 45.800781 -1.582031 36.28125 -3.96875 L 38.265625 37.875 L 2.578125 37.875 L 1.984375 -96.15625 Z M 48.578125 -70.1875 C 45.398438 -69.519531 42.953125 -68.726562 41.234375 -67.8125 C 39.390625 -66.882812 38.070312 -65.5625 37.28125 -63.84375 C 36.476562 -61.988281 36.015625 -59.675781 35.890625 -56.90625 C 35.753906 -54.125 35.6875 -50.554688 35.6875 -46.203125 C 35.6875 -41.835938 35.753906 -38.066406 35.890625 -34.890625 C 36.015625 -31.722656 36.476562 -29.082031 37.28125 -26.96875 C 38.070312 -24.851562 39.390625 -23.265625 41.234375 -22.203125 C 42.953125 -21.148438 45.398438 -20.625 48.578125 -20.625 C 52.015625 -20.625 54.65625 -21.148438 56.5 -22.203125 C 58.21875 -23.265625 59.472656 -24.851562 60.265625 -26.96875 C 61.066406 -29.082031 61.53125 -31.722656 61.65625 -34.890625 C 61.65625 -38.066406 61.65625 -41.835938 61.65625 -46.203125 C 61.65625 -50.035156 61.722656 -53.46875 61.859375 -56.5 C 61.859375 -59.539062 61.660156 -62.117188 61.265625 -64.234375 C 60.867188 -66.347656 60.140625 -68 59.078125 -69.1875 C 57.890625 -70.25 56.039062 -70.78125 53.53125 -70.78125 C 52.070312 -70.78125 50.421875 -70.582031 48.578125 -70.1875 Z M 48.578125 -70.1875 "/></g></g></g></g></g></svg>